<mxfile host="app.diagrams.net" modified="2023-10-09T11:46:25.802Z" agent="Mozilla/5.0 (Windows NT 10.0; Win64; x64) AppleWebKit/537.36 (KHTML, like Gecko) Chrome/117.0.0.0 Safari/537.36" version="22.0.4" etag="E7gnzVosYCBubqjL9n-F" type="github">
  <diagram name="PÃ¡gina-1" id="Yz09gGLefL8kFZEgftGM">
    <mxGraphModel>
      <root>
        <mxCell id="0" />
        <mxCell id="1" parent="0" />
      </root>
    </mxGraphModel>
  </diagram>
</mxfile>
